<?xml version="1.0" encoding="UTF-8"?>
<svg xmlns="http://www.w3.org/2000/svg" xmlns:xlink="http://www.w3.org/1999/xlink" width="37.5pt" height="37.499999pt" viewBox="0 0 37.5 37.499999" version="1.2">
<defs>
<clipPath id="clip1">
  <path d="M 2 0 L 36 0 L 36 37.007812 L 2 37.007812 Z M 2 0 "/>
</clipPath>
</defs>
<g id="surface1">
<g clip-path="url(#clip1)" clip-rule="nonzero">
<path style=" stroke:none;fill-rule:nonzero;fill:rgb(78.039551%,59.609985%,51.368713%);fill-opacity:1;" d="M 34.128906 18.199219 C 30.046875 18.199219 26.433594 20.234375 24.242188 23.34375 L 24.242188 17.578125 C 24.242188 14.925781 22.351562 12.707031 19.847656 12.195312 L 19.847656 7.691406 L 17.652344 7.691406 L 17.652344 2.199219 L 24.242188 2.199219 L 24.242188 0 L 8.863281 0 L 8.863281 7.691406 L 6.664062 7.691406 L 6.664062 12.195312 C 4.160156 12.707031 2.269531 14.925781 2.269531 17.578125 L 2.269531 37.5 L 24.242188 37.5 L 24.242188 31.332031 C 30.394531 30.777344 35.230469 25.59375 35.230469 19.300781 L 35.230469 18.199219 Z M 11.058594 2.195312 L 15.453125 2.195312 L 15.453125 7.691406 L 11.058594 7.691406 Z M 17.652344 9.886719 L 17.652344 12.085938 L 8.863281 12.085938 L 8.863281 9.886719 Z M 4.46875 35.300781 L 4.46875 17.578125 C 4.46875 15.761719 5.945312 14.28125 7.761719 14.28125 L 18.75 14.28125 C 20.566406 14.28125 22.046875 15.761719 22.046875 17.578125 L 22.046875 23.34375 C 19.855469 20.234375 16.242188 18.199219 12.15625 18.199219 L 11.058594 18.199219 L 11.058594 19.300781 C 11.058594 25.59375 15.894531 30.777344 22.046875 31.332031 L 22.046875 35.300781 Z M 21.976562 29.117188 C 17.457031 28.585938 13.859375 24.988281 13.324219 20.464844 C 17.847656 21 21.445312 24.597656 21.976562 29.117188 Z M 24.3125 29.117188 C 24.84375 24.597656 28.441406 21 32.964844 20.464844 C 32.429688 24.988281 28.832031 28.585938 24.3125 29.117188 Z M 24.3125 29.117188 "/>
</g>
</g>
</svg>
